<?xml version="1.0" encoding="UTF-8" standalone="no"?><!DOCTYPE svg PUBLIC "-//W3C//DTD SVG 1.1//EN" "http://www.w3.org/Graphics/SVG/1.1/DTD/svg11.dtd"><svg width="100%" height="100%" viewBox="0 0 400 420" version="1.1" xmlns="http://www.w3.org/2000/svg" xmlns:xlink="http://www.w3.org/1999/xlink" xml:space="preserve" xmlns:serif="http://www.serif.com/" style="fill-rule:evenodd;clip-rule:evenodd;stroke-linecap:round;"><g><path d="M134,98l11,1.294l-3,251.41l-32,13.295l18.678,-114.431l5.322,-151.569Z" style="fill:url(#_Linear1);fill-rule:nonzero;"/><path d="M239,104l18.222,0l5.532,158.624l24.246,103.376l-38.889,-9.16l-9.111,-252.84Z" style="fill:url(#_Linear2);fill-rule:nonzero;"/><path d="M47,96.667c109.432,-12.222 201.765,-12.222 277,0l-5.13,18.333c-71.815,-12.222 -143.63,-12.222 -215.444,0l-56.426,-18.333Z" style="fill:url(#_Linear3);fill-rule:nonzero;"/><path d="M45,96c109.037,-11.333 201.037,-11.333 276,0" style="fill:none;fill-rule:nonzero;stroke:#000;stroke-width:4.32px;"/><path d="M100,114c86.519,-11.333 159.519,-11.333 219,0" style="fill:none;fill-rule:nonzero;stroke:#fff8f8;stroke-opacity:0.41;stroke-width:3.94px;"/><path d="M242.63,354.416l53.699,7.25l-8.926,21.111l-41.766,-5.639l-3.008,-22.723Z" style="fill-rule:nonzero;"/><path d="M102.478,366.299l44.854,-17.09l1.781,23.934l-32.039,12.207l-14.597,-19.051Z" style="fill-rule:nonzero;"/></g><defs><linearGradient id="_Linear1" x1="0" y1="0" x2="1" y2="0" gradientUnits="userSpaceOnUse" gradientTransform="matrix(0,270,-357,0,110,94)"><stop offset="0" style="stop-color:#e63946;stop-opacity:1"/><stop offset="0.5" style="stop-color:#c41e3a;stop-opacity:1"/><stop offset="1" style="stop-color:#9b1b30;stop-opacity:1"/></linearGradient><linearGradient id="_Linear2" x1="0" y1="0" x2="1" y2="0" gradientUnits="userSpaceOnUse" gradientTransform="matrix(0,258,-227.777778,0,239,104)"><stop offset="0" style="stop-color:#e63946;stop-opacity:1"/><stop offset="0.5" style="stop-color:#c41e3a;stop-opacity:1"/><stop offset="1" style="stop-color:#9b1b30;stop-opacity:1"/></linearGradient><linearGradient id="_Linear3" x1="0" y1="0" x2="1" y2="0" gradientUnits="userSpaceOnUse" gradientTransform="matrix(0,27.5,-23.083333,0,47,87.5)"><stop offset="0" style="stop-color:#e63946;stop-opacity:1"/><stop offset="0.5" style="stop-color:#c41e3a;stop-opacity:1"/><stop offset="1" style="stop-color:#9b1b30;stop-opacity:1"/></linearGradient></defs></svg>